Coordinates
version=1
nRows=6
nColumns=46
inDegrees=yes

Units are S.I. units (second, meters, Newtons, ...)
Angles are in degrees.

endheader
time	pelvis_tilt	pelvis_list	pelvis_rotation	pelvis_tx	pelvis_ty	pelvis_tz	bb_angle	bb_tx	bb_ty	bb_tz	hip_flexion_r	hip_adduction_r	hip_rotation_r	knee_angle_r	knee_angle_r_beta	ankle_angle_r	subtalar_angle_r	mtp_angle_r	crank_angle_r	hip_flexion_l	hip_adduction_l	hip_rotation_l	knee_angle_l	knee_angle_l_beta	ankle_angle_l	subtalar_angle_l	mtp_angle_l	crank_angle_l	lumbar_extension	lumbar_bending	lumbar_rotation	arm_flex_r	arm_add_r	arm_rot_r	elbow_flex_r	pro_sup_r	wrist_flex_r	wrist_dev_r	arm_flex_l	arm_add_l	arm_rot_l	elbow_flex_l	pro_sup_l	wrist_flex_l	wrist_dev_l
      7.50500000	    -38.84303010	     11.42062820	      8.95511235	      0.38628702	      1.08541648	     -0.23482274	      0.00000000	      0.50000000	      0.00000000	      0.25000000	     37.89347141	    -20.44457796	     -6.65324315	     20.75970871	      0.36232527	    -39.67222340	     -3.75793457	      0.00000000	      0.00000000	     89.13334989	     10.15717587	     -4.15236673	    101.91488511	      1.77875030	      6.65800592	     -9.25126008	      0.00000000	      0.00000000	    -55.34490145	     -3.04428764	    -19.40398984	     27.70225832	    -20.85631152	     16.83362551	    112.74452487	     53.60298905	      0.00000000	      0.00000000	     27.97874447	    -39.21522676	     18.41811525	    117.68088727	     55.64984302	      0.00000000	      0.00000000
      7.51000000	    -39.12587019	     11.16219199	      8.88547872	      0.38607888	      1.08733449	     -0.23479225	      0.00000000	      0.50000000	      0.00000000	      0.25000000	     38.88068036	    -19.95228376	     -4.88559042	     23.07361052	      0.40271047	    -39.64828559	     -5.56651318	      0.00000000	      0.00000000	     88.57077959	      9.89666739	     -4.02115745	     99.97591995	      1.74490898	      8.54619159	     -9.01950673	      0.00000000	      0.00000000	    -55.47454892	     -2.92043627	    -19.31521092	     28.17555493	    -20.84546608	     16.87869091	    112.59340821	     53.59067295	      0.00000000	      0.00000000	     27.92001985	    -39.06463273	     18.29273689	    118.00660676	     55.67229182	      0.00000000	      0.00000000
      7.51500000	    -39.41381931	     10.84496326	      8.66880671	      0.38602337	      1.08908231	     -0.23475737	      0.00000000	      0.50000000	      0.00000000	      0.25000000	     40.03853105	    -19.29060517	     -2.94348053	     25.58584622	      0.44655726	    -39.63293775	     -6.98476004	      0.00000000	      0.00000000	     87.87702921	      9.47832824	     -3.91771014	     97.84405523	      1.70770092	     10.33416202	     -8.96765471	      0.00000000	      0.00000000	    -55.55606054	     -2.84949114	    -19.14579479	     28.66313158	    -20.94305716	     17.06454060	    112.39310905	     53.58770271	      0.00000000	      0.00000000	     27.74050551	    -38.82866406	     18.16803045	    118.30423734	     55.69220878	      0.00000000	      0.00000000
      7.52000000	    -39.76973921	     10.39859839	      8.42091141	      0.38575978	      1.09036516	     -0.23465003	      0.00000000	      0.50000000	      0.00000000	      0.25000000	     41.42002248	    -18.43929830	     -0.95585924	     28.29569630	      0.49385306	    -39.62685121	     -7.78296447	      0.00000000	      0.00000000	     87.18202522	      8.87095502	     -3.88628892	     95.56196512	      1.66787093	     11.97098281	     -8.78965277	      0.00000000	      0.00000000	    -55.47664777	     -2.72927302	    -18.86336729	     29.11582756	    -21.15507755	     17.55838966	    112.15687524	     53.62634029	      0.00000000	      0.00000000	     27.38031935	    -38.52273996	     17.81126732	    118.65057003	     55.68477749	      0.00000000	      0.00000000
      7.52500000	    -39.76213726	     10.05234469	      8.05507492	      0.38633242	      1.09227092	     -0.23447466	      0.00000000	      0.50000000	      0.00000000	      0.25000000	     42.41903029	    -17.63406643	      0.79661187	     30.90079456	      0.53932061	    -39.61955598	     -8.30606187	      0.00000000	      0.00000000	     85.91382860	      8.47811028	     -3.66003781	     93.05264899	      1.62407510	     13.26657325	     -9.12317368	      0.00000000	      0.00000000	    -55.84859900	     -2.66504612	    -18.53276626	     29.64405219	    -21.31374003	     17.67998399	    112.15014061	     53.64002617	      0.00000000	      0.00000000	     27.23088048	    -38.19355690	     17.66463428	    118.77777300	     55.68088377	      0.00000000	      0.00000000
      7.53000000	    -39.92721046	      9.68195907	      7.57022195	      0.38653867	      1.09342870	     -0.23413826	      0.00000000	      0.50000000	      0.00000000	      0.25000000	     43.70891845	    -16.66483113	      2.78905550	     33.57288476	      0.58595738	    -39.62100180	     -8.79496537	      0.00000000	      0.00000000	     84.81988065	      7.67027023	     -3.83259853	     90.46437727	      1.57890124	     14.22184728	     -9.51430901	      0.00000000	      0.00000000	    -55.90931866	     -2.74716880	    -18.12470124	     30.10817867	    -21.72201387	     18.00362453	    112.07916385	     53.67105450	      0.00000000	      0.00000000	     27.03065530	    -37.67835693	     17.38307747	    119.00569927	     55.67437423	      0.00000000	      0.00000000
